<svg xmlns="http://www.w3.org/2000/svg" viewBox="0 0 100 100">
<defs>
<radialGradient id="body"><stop stop-color="#303235"/><stop offset=".5" stop-color="#030405"/><stop offset=".85" stop-color="#121416"/><stop offset="1" stop-color="#020304"/></radialGradient>
<linearGradient id="shine" x1="0" y1="0" x2="1" y2="1"><stop stop-color="#fff" stop-opacity=".9"/><stop offset=".42" stop-color="#dce3ea" stop-opacity=".2"/><stop offset=".57" stop-color="#fff" stop-opacity=".02"/><stop offset="1" stop-color="#fff" stop-opacity=".75"/></linearGradient>
<radialGradient id="label"><stop stop-color="#f0dfb7"/><stop offset="1" stop-color="#b79a6e"/></radialGradient>
<clipPath id="disc"><circle cx="50" cy="50" r="48"/></clipPath>
</defs>
<circle cx="50" cy="50" r="49" fill="url(#body)" stroke="#95999c" stroke-width=".7"/>
<g clip-path="url(#disc)">
<path d="M-2 4L32 -2 50 50 104 92 67 104 50 50Z" fill="url(#shine)"/>
<path d="M0 12L8 2 50 50 99 83 94 94 50 50Z" fill="#fff" opacity=".2"/>
<g fill="none" stroke="#899098" stroke-opacity=".52" stroke-width=".32"><circle cx="50" cy="50" r="24"/><circle cx="50" cy="50" r="25"/><circle cx="50" cy="50" r="26"/><circle cx="50" cy="50" r="27"/><circle cx="50" cy="50" r="28"/><circle cx="50" cy="50" r="29"/><circle cx="50" cy="50" r="30"/><circle cx="50" cy="50" r="31"/><circle cx="50" cy="50" r="32"/><circle cx="50" cy="50" r="33"/><circle cx="50" cy="50" r="34"/><circle cx="50" cy="50" r="35"/><circle cx="50" cy="50" r="36"/><circle cx="50" cy="50" r="37"/><circle cx="50" cy="50" r="38"/><circle cx="50" cy="50" r="39"/><circle cx="50" cy="50" r="40"/><circle cx="50" cy="50" r="41"/><circle cx="50" cy="50" r="42"/><circle cx="50" cy="50" r="43"/><circle cx="50" cy="50" r="44"/><circle cx="50" cy="50" r="45"/><circle cx="50" cy="50" r="46"/></g>
<g fill="none" stroke="#000" stroke-opacity=".85" stroke-width=".45" transform="translate(.2 .3)"><circle cx="50" cy="50" r="24"/><circle cx="50" cy="50" r="25"/><circle cx="50" cy="50" r="26"/><circle cx="50" cy="50" r="27"/><circle cx="50" cy="50" r="28"/><circle cx="50" cy="50" r="29"/><circle cx="50" cy="50" r="30"/><circle cx="50" cy="50" r="31"/><circle cx="50" cy="50" r="32"/><circle cx="50" cy="50" r="33"/><circle cx="50" cy="50" r="34"/><circle cx="50" cy="50" r="35"/><circle cx="50" cy="50" r="36"/><circle cx="50" cy="50" r="37"/><circle cx="50" cy="50" r="38"/><circle cx="50" cy="50" r="39"/><circle cx="50" cy="50" r="40"/><circle cx="50" cy="50" r="41"/><circle cx="50" cy="50" r="42"/><circle cx="50" cy="50" r="43"/><circle cx="50" cy="50" r="44"/><circle cx="50" cy="50" r="45"/><circle cx="50" cy="50" r="46"/></g>
</g>
<circle cx="50" cy="50" r="22" fill="#08090a" stroke="#777b7d" stroke-width=".45"/>
<circle cx="50" cy="50" r="19" fill="url(#label)"/>
<path d="M32 43Q50 33 68 43L68 46Q50 39 32 46Z" fill="#703a29"/>
<text x="50" y="60" text-anchor="middle" font-size="7" letter-spacing="1.5" font-family="Georgia,serif" fill="#47372a">SHILI</text>
<circle cx="50" cy="50" r="4" fill="#0a0b0c" stroke="#f8ebd0" stroke-width="1.1"/>
<circle cx="50" cy="50" r="47.5" fill="none" stroke="#c9d0d4" stroke-width=".3" opacity=".6"/>
</svg>